<mxfile host="app.diagrams.net" agent="Mozilla/5.0 (Windows NT 10.0; Win64; x64) AppleWebKit/537.36 (KHTML, like Gecko) Chrome/129.0.0.0 Safari/537.36" version="24.7.16" pages="2">
  <diagram id="lNhcyBsgyvsqkkjFAHYc" name="C4 - Containers">
    <mxGraphModel dx="3032" dy="1571" grid="0" gridSize="10" guides="1" tooltips="1" connect="1" arrows="1" fold="1" page="0" pageScale="1" pageWidth="827" pageHeight="1169" math="0" shadow="0">
      <root>
        <mxCell id="0" />
        <mxCell id="1" parent="0" />
        <object placeholders="1" c4Name="MailService" c4Type="Container" c4Technology=".NET Worker" c4Description="Send email to Customer about OrderStateChanges" label="&lt;font style=&quot;font-size: 16px&quot;&gt;&lt;b&gt;%c4Name%&lt;/b&gt;&lt;/font&gt;&lt;div&gt;[%c4Type%: %c4Technology%]&lt;/div&gt;&lt;br&gt;&lt;div&gt;&lt;font style=&quot;font-size: 11px&quot;&gt;&lt;font color=&quot;#E6E6E6&quot;&gt;%c4Description%&lt;/font&gt;&lt;/div&gt;" id="JnOh8vPX9nfvbsN_XU69-1">
          <mxCell style="rounded=1;whiteSpace=wrap;html=1;fontSize=11;labelBackgroundColor=none;fillColor=#23A2D9;fontColor=#ffffff;align=center;arcSize=10;strokeColor=#0E7DAD;metaEdit=1;resizable=0;points=[[0.25,0,0],[0.5,0,0],[0.75,0,0],[1,0.25,0],[1,0.5,0],[1,0.75,0],[0.75,1,0],[0.5,1,0],[0.25,1,0],[0,0.75,0],[0,0.5,0],[0,0.25,0]];" vertex="1" parent="1">
            <mxGeometry x="-481" y="483" width="240" height="120" as="geometry" />
          </mxCell>
        </object>
        <object placeholders="1" c4Name="Api" c4Type="Container" c4Technology="ASP.NET WebApi" c4Description="" label="&lt;font style=&quot;font-size: 16px&quot;&gt;&lt;b&gt;%c4Name%&lt;/b&gt;&lt;/font&gt;&lt;div&gt;[%c4Type%: %c4Technology%]&lt;/div&gt;&lt;br&gt;&lt;div&gt;&lt;font style=&quot;font-size: 11px&quot;&gt;&lt;font color=&quot;#E6E6E6&quot;&gt;%c4Description%&lt;/font&gt;&lt;/div&gt;" id="JnOh8vPX9nfvbsN_XU69-2">
          <mxCell style="rounded=1;whiteSpace=wrap;html=1;fontSize=11;labelBackgroundColor=none;fillColor=#23A2D9;fontColor=#ffffff;align=center;arcSize=10;strokeColor=#0E7DAD;metaEdit=1;resizable=0;points=[[0.25,0,0],[0.5,0,0],[0.75,0,0],[1,0.25,0],[1,0.5,0],[1,0.75,0],[0.75,1,0],[0.5,1,0],[0.25,1,0],[0,0.75,0],[0,0.5,0],[0,0.25,0]];" vertex="1" parent="1">
            <mxGeometry x="-481" y="-117" width="240" height="120" as="geometry" />
          </mxCell>
        </object>
        <object placeholders="1" c4Name="OrderManagementDb" c4Type="Container" c4Technology="MongoDB" c4Description="Database working as storage and Queues for Notifications" label="&lt;font style=&quot;font-size: 16px&quot;&gt;&lt;b&gt;%c4Name%&lt;/b&gt;&lt;/font&gt;&lt;div&gt;[%c4Type%:&amp;nbsp;%c4Technology%]&lt;/div&gt;&lt;br&gt;&lt;div&gt;&lt;font style=&quot;font-size: 11px&quot;&gt;&lt;font color=&quot;#E6E6E6&quot;&gt;%c4Description%&lt;/font&gt;&lt;/div&gt;" id="JnOh8vPX9nfvbsN_XU69-4">
          <mxCell style="shape=cylinder3;size=15;whiteSpace=wrap;html=1;boundedLbl=1;rounded=0;labelBackgroundColor=none;fillColor=#23A2D9;fontSize=12;fontColor=#ffffff;align=center;strokeColor=#0E7DAD;metaEdit=1;points=[[0.5,0,0],[1,0.25,0],[1,0.5,0],[1,0.75,0],[0.5,1,0],[0,0.75,0],[0,0.5,0],[0,0.25,0]];resizable=0;" vertex="1" parent="1">
            <mxGeometry x="-481" y="155" width="240" height="120" as="geometry" />
          </mxCell>
        </object>
        <mxCell id="JnOh8vPX9nfvbsN_XU69-5" style="edgeStyle=orthogonalEdgeStyle;rounded=0;orthogonalLoop=1;jettySize=auto;html=1;exitX=0.5;exitY=1;exitDx=0;exitDy=0;exitPerimeter=0;entryX=0.5;entryY=0;entryDx=0;entryDy=0;entryPerimeter=0;fontSize=12;startSize=8;endSize=8;" edge="1" parent="1" source="JnOh8vPX9nfvbsN_XU69-2" target="JnOh8vPX9nfvbsN_XU69-4">
          <mxGeometry relative="1" as="geometry" />
        </mxCell>
        <mxCell id="JnOh8vPX9nfvbsN_XU69-6" style="edgeStyle=none;curved=1;rounded=0;orthogonalLoop=1;jettySize=auto;html=1;exitX=0.5;exitY=0;exitDx=0;exitDy=0;exitPerimeter=0;entryX=0.5;entryY=1;entryDx=0;entryDy=0;entryPerimeter=0;fontSize=12;startSize=8;endSize=8;" edge="1" parent="1" source="JnOh8vPX9nfvbsN_XU69-1" target="JnOh8vPX9nfvbsN_XU69-4">
          <mxGeometry relative="1" as="geometry" />
        </mxCell>
        <object placeholders="1" c4Name="PlacedOrdersProcessor" c4Type="Container" c4Technology=".NET Worker" c4Description="" label="&lt;font style=&quot;font-size: 16px&quot;&gt;&lt;b&gt;%c4Name%&lt;/b&gt;&lt;/font&gt;&lt;div&gt;[%c4Type%: %c4Technology%]&lt;/div&gt;&lt;br&gt;&lt;div&gt;&lt;font style=&quot;font-size: 11px&quot;&gt;&lt;font color=&quot;#E6E6E6&quot;&gt;%c4Description%&lt;/font&gt;&lt;/div&gt;" id="JnOh8vPX9nfvbsN_XU69-7">
          <mxCell style="rounded=1;whiteSpace=wrap;html=1;fontSize=11;labelBackgroundColor=none;fillColor=#23A2D9;fontColor=#ffffff;align=center;arcSize=10;strokeColor=#0E7DAD;metaEdit=1;resizable=0;points=[[0.25,0,0],[0.5,0,0],[0.75,0,0],[1,0.25,0],[1,0.5,0],[1,0.75,0],[0.75,1,0],[0.5,1,0],[0.25,1,0],[0,0.75,0],[0,0.5,0],[0,0.25,0]];" vertex="1" parent="1">
            <mxGeometry x="-53" y="155" width="240" height="120" as="geometry" />
          </mxCell>
        </object>
        <mxCell id="JnOh8vPX9nfvbsN_XU69-8" style="edgeStyle=none;curved=1;rounded=0;orthogonalLoop=1;jettySize=auto;html=1;exitX=0;exitY=0.5;exitDx=0;exitDy=0;exitPerimeter=0;entryX=1;entryY=0.5;entryDx=0;entryDy=0;entryPerimeter=0;fontSize=12;startSize=8;endSize=8;" edge="1" parent="1" source="JnOh8vPX9nfvbsN_XU69-7" target="JnOh8vPX9nfvbsN_XU69-4">
          <mxGeometry relative="1" as="geometry" />
        </mxCell>
      </root>
    </mxGraphModel>
  </diagram>
  <diagram name="OrderStates Flow" id="C6dHEtcdFMjBkvfJQ5wJ">
    <mxGraphModel dx="2444" dy="1171" grid="1" gridSize="10" guides="1" tooltips="1" connect="1" arrows="1" fold="1" page="1" pageScale="1" pageWidth="827" pageHeight="1169" math="0" shadow="0">
      <root>
        <mxCell id="0" />
        <mxCell id="1" parent="0" />
        <mxCell id="rCai1Dj7KJWfoBfw-TI7-5" style="edgeStyle=orthogonalEdgeStyle;rounded=0;orthogonalLoop=1;jettySize=auto;html=1;exitX=0;exitY=0.5;exitDx=0;exitDy=0;entryX=0.5;entryY=0;entryDx=0;entryDy=0;" parent="1" source="rCai1Dj7KJWfoBfw-TI7-2" target="rCai1Dj7KJWfoBfw-TI7-4" edge="1">
          <mxGeometry relative="1" as="geometry" />
        </mxCell>
        <mxCell id="rCai1Dj7KJWfoBfw-TI7-8" style="edgeStyle=orthogonalEdgeStyle;rounded=0;orthogonalLoop=1;jettySize=auto;html=1;exitX=0.5;exitY=1;exitDx=0;exitDy=0;entryX=0.5;entryY=0;entryDx=0;entryDy=0;" parent="1" source="rCai1Dj7KJWfoBfw-TI7-2" target="rCai1Dj7KJWfoBfw-TI7-6" edge="1">
          <mxGeometry relative="1" as="geometry" />
        </mxCell>
        <mxCell id="rCai1Dj7KJWfoBfw-TI7-2" value="Aguardando processamento" style="whiteSpace=wrap;html=1;aspect=fixed;" parent="1" vertex="1">
          <mxGeometry x="390" y="260" width="100" height="100" as="geometry" />
        </mxCell>
        <mxCell id="rCai1Dj7KJWfoBfw-TI7-4" value="Cancelado" style="whiteSpace=wrap;html=1;aspect=fixed;fillColor=#FFABAB;" parent="1" vertex="1">
          <mxGeometry x="90" y="360" width="80" height="80" as="geometry" />
        </mxCell>
        <mxCell id="rCai1Dj7KJWfoBfw-TI7-10" style="edgeStyle=orthogonalEdgeStyle;rounded=0;orthogonalLoop=1;jettySize=auto;html=1;exitX=0.5;exitY=1;exitDx=0;exitDy=0;entryX=0.5;entryY=0;entryDx=0;entryDy=0;" parent="1" source="rCai1Dj7KJWfoBfw-TI7-6" target="rCai1Dj7KJWfoBfw-TI7-9" edge="1">
          <mxGeometry relative="1" as="geometry" />
        </mxCell>
        <mxCell id="rCai1Dj7KJWfoBfw-TI7-13" style="edgeStyle=orthogonalEdgeStyle;rounded=0;orthogonalLoop=1;jettySize=auto;html=1;exitX=0;exitY=0.5;exitDx=0;exitDy=0;entryX=0.75;entryY=1;entryDx=0;entryDy=0;" parent="1" source="rCai1Dj7KJWfoBfw-TI7-6" target="rCai1Dj7KJWfoBfw-TI7-4" edge="1">
          <mxGeometry relative="1" as="geometry" />
        </mxCell>
        <mxCell id="rCai1Dj7KJWfoBfw-TI7-6" value="Processando Pagamento" style="whiteSpace=wrap;html=1;" parent="1" vertex="1">
          <mxGeometry x="380" y="460" width="120" height="60" as="geometry" />
        </mxCell>
        <mxCell id="rCai1Dj7KJWfoBfw-TI7-15" style="edgeStyle=orthogonalEdgeStyle;rounded=0;orthogonalLoop=1;jettySize=auto;html=1;entryX=0.5;entryY=0;entryDx=0;entryDy=0;" parent="1" source="rCai1Dj7KJWfoBfw-TI7-9" target="rCai1Dj7KJWfoBfw-TI7-14" edge="1">
          <mxGeometry relative="1" as="geometry" />
        </mxCell>
        <mxCell id="rCai1Dj7KJWfoBfw-TI7-9" value="Pagamento ConcluÃ­do" style="whiteSpace=wrap;html=1;" parent="1" vertex="1">
          <mxGeometry x="380" y="610" width="120" height="60" as="geometry" />
        </mxCell>
        <mxCell id="rCai1Dj7KJWfoBfw-TI7-17" style="edgeStyle=orthogonalEdgeStyle;rounded=0;orthogonalLoop=1;jettySize=auto;html=1;exitX=0.5;exitY=1;exitDx=0;exitDy=0;entryX=0.5;entryY=0;entryDx=0;entryDy=0;" parent="1" source="rCai1Dj7KJWfoBfw-TI7-14" target="rCai1Dj7KJWfoBfw-TI7-16" edge="1">
          <mxGeometry relative="1" as="geometry" />
        </mxCell>
        <mxCell id="rCai1Dj7KJWfoBfw-TI7-19" style="edgeStyle=orthogonalEdgeStyle;rounded=0;orthogonalLoop=1;jettySize=auto;html=1;exitX=0;exitY=0.5;exitDx=0;exitDy=0;entryX=1;entryY=0.5;entryDx=0;entryDy=0;" parent="1" source="rCai1Dj7KJWfoBfw-TI7-14" target="rCai1Dj7KJWfoBfw-TI7-18" edge="1">
          <mxGeometry relative="1" as="geometry" />
        </mxCell>
        <mxCell id="rCai1Dj7KJWfoBfw-TI7-22" style="edgeStyle=orthogonalEdgeStyle;rounded=0;orthogonalLoop=1;jettySize=auto;html=1;exitX=0;exitY=0.25;exitDx=0;exitDy=0;entryX=0.5;entryY=1;entryDx=0;entryDy=0;" parent="1" source="rCai1Dj7KJWfoBfw-TI7-14" target="rCai1Dj7KJWfoBfw-TI7-4" edge="1">
          <mxGeometry relative="1" as="geometry">
            <Array as="points">
              <mxPoint x="170" y="765" />
              <mxPoint x="170" y="600" />
              <mxPoint x="130" y="600" />
            </Array>
          </mxGeometry>
        </mxCell>
        <mxCell id="rCai1Dj7KJWfoBfw-TI7-23" value="SE&lt;br&gt;RealizarEstorno" style="edgeLabel;html=1;align=center;verticalAlign=middle;resizable=0;points=[];" parent="rCai1Dj7KJWfoBfw-TI7-22" vertex="1" connectable="0">
          <mxGeometry x="0.4393" y="-2" relative="1" as="geometry">
            <mxPoint x="39" y="62" as="offset" />
          </mxGeometry>
        </mxCell>
        <mxCell id="rCai1Dj7KJWfoBfw-TI7-14" value="Separando&lt;br/&gt;Pedido" style="whiteSpace=wrap;html=1;" parent="1" vertex="1">
          <mxGeometry x="380" y="750" width="120" height="60" as="geometry" />
        </mxCell>
        <mxCell id="rCai1Dj7KJWfoBfw-TI7-16" value="ConcluÃ­do" style="whiteSpace=wrap;html=1;fillColor=#2BFF48;" parent="1" vertex="1">
          <mxGeometry x="380" y="900" width="120" height="60" as="geometry" />
        </mxCell>
        <mxCell id="rCai1Dj7KJWfoBfw-TI7-20" style="edgeStyle=orthogonalEdgeStyle;rounded=0;orthogonalLoop=1;jettySize=auto;html=1;exitX=0.5;exitY=0;exitDx=0;exitDy=0;entryX=0.25;entryY=1;entryDx=0;entryDy=0;" parent="1" source="rCai1Dj7KJWfoBfw-TI7-18" target="rCai1Dj7KJWfoBfw-TI7-4" edge="1">
          <mxGeometry relative="1" as="geometry">
            <mxPoint x="190" y="350" as="targetPoint" />
          </mxGeometry>
        </mxCell>
        <mxCell id="rCai1Dj7KJWfoBfw-TI7-21" value="SE&lt;br&gt;RealizarEstorno" style="edgeLabel;html=1;align=center;verticalAlign=middle;resizable=0;points=[];" parent="rCai1Dj7KJWfoBfw-TI7-20" vertex="1" connectable="0">
          <mxGeometry x="-0.5905" y="-2" relative="1" as="geometry">
            <mxPoint as="offset" />
          </mxGeometry>
        </mxCell>
        <mxCell id="rCai1Dj7KJWfoBfw-TI7-18" value="Aguardando&lt;br/&gt;Estoque" style="whiteSpace=wrap;html=1;" parent="1" vertex="1">
          <mxGeometry x="50" y="800" width="120" height="60" as="geometry" />
        </mxCell>
        <mxCell id="rCai1Dj7KJWfoBfw-TI7-25" style="edgeStyle=orthogonalEdgeStyle;rounded=0;orthogonalLoop=1;jettySize=auto;html=1;entryX=0.5;entryY=0;entryDx=0;entryDy=0;" parent="1" target="rCai1Dj7KJWfoBfw-TI7-2" edge="1">
          <mxGeometry relative="1" as="geometry">
            <mxPoint x="439" y="200" as="sourcePoint" />
            <mxPoint x="440" y="250" as="targetPoint" />
          </mxGeometry>
        </mxCell>
        <mxCell id="pceQmavskI6zz6a2MNYs-1" value="InÃ­cio" style="text;html=1;align=center;verticalAlign=middle;whiteSpace=wrap;rounded=0;" parent="1" vertex="1">
          <mxGeometry x="410" y="180" width="60" height="30" as="geometry" />
        </mxCell>
      </root>
    </mxGraphModel>
  </diagram>
</mxfile>
